<mxfile host="app.diagrams.net" agent="Mozilla/5.0 (Windows NT 10.0; Win64; x64; rv:133.0) Gecko/20100101 Firefox/133.0" version="26.0.4">
  <diagram name="Page-1" id="H1_biFH23Ftn4ZECsoVM">
    <mxGraphModel dx="1050" dy="626" grid="1" gridSize="10" guides="1" tooltips="1" connect="1" arrows="1" fold="1" page="1" pageScale="1" pageWidth="827" pageHeight="1169" math="0" shadow="0">
      <root>
        <mxCell id="0" />
        <mxCell id="1" parent="0" />
        <mxCell id="gIh29v_b7M5LJK4Dhc74-1" value="Divona" style="rounded=0;whiteSpace=wrap;html=1;" vertex="1" parent="1">
          <mxGeometry x="40" y="155" width="120" height="60" as="geometry" />
        </mxCell>
        <mxCell id="gIh29v_b7M5LJK4Dhc74-5" value="ssh" style="shape=flexArrow;endArrow=classic;html=1;rounded=0;" edge="1" parent="1" source="gIh29v_b7M5LJK4Dhc74-3">
          <mxGeometry width="50" height="50" relative="1" as="geometry">
            <mxPoint x="160" y="184.5" as="sourcePoint" />
            <mxPoint x="420" y="184.5" as="targetPoint" />
          </mxGeometry>
        </mxCell>
        <mxCell id="gIh29v_b7M5LJK4Dhc74-6" value="" style="shape=flexArrow;endArrow=classic;html=1;rounded=0;" edge="1" parent="1" target="gIh29v_b7M5LJK4Dhc74-3">
          <mxGeometry width="50" height="50" relative="1" as="geometry">
            <mxPoint x="160" y="184.5" as="sourcePoint" />
            <mxPoint x="420" y="184.5" as="targetPoint" />
          </mxGeometry>
        </mxCell>
        <mxCell id="gIh29v_b7M5LJK4Dhc74-3" value="Internet" style="ellipse;shape=cloud;whiteSpace=wrap;html=1;" vertex="1" parent="1">
          <mxGeometry x="210" y="135" width="120" height="80" as="geometry" />
        </mxCell>
        <mxCell id="gIh29v_b7M5LJK4Dhc74-7" value="" style="whiteSpace=wrap;html=1;aspect=fixed;" vertex="1" parent="1">
          <mxGeometry x="420" y="60" width="270" height="270" as="geometry" />
        </mxCell>
        <mxCell id="gIh29v_b7M5LJK4Dhc74-8" value="Azure" style="text;html=1;align=center;verticalAlign=middle;resizable=0;points=[];autosize=1;strokeColor=none;fillColor=none;" vertex="1" parent="1">
          <mxGeometry x="414" y="30" width="50" height="30" as="geometry" />
        </mxCell>
      </root>
    </mxGraphModel>
  </diagram>
</mxfile>
